<svg xmlns="http://www.w3.org/2000/svg" version="1.1" xmlns:xlink="http://www.w3.org/1999/xlink" xmlns:svgjs="http://svgjs.com/svgjs" width="1440" height="560" preserveAspectRatio="none" viewBox="0 0 1440 560"><g mask="url(&quot;#SvgjsMask1011&quot;)" fill="none"><rect width="1440" height="560" x="0" y="0" fill="rgba(251, 255, 241, 1)"></rect><path d="M1440 0L1058.01 0L1440 20.77z" fill="rgba(255, 255, 255, .1)"></path><path d="M1058.01 0L1440 20.77L1440 128.43L665.16 0z" fill="rgba(255, 255, 255, .075)"></path><path d="M665.16 0L1440 128.43L1440 180.18L343.80999999999995 0z" fill="rgba(255, 255, 255, .05)"></path><path d="M343.80999999999995 0L1440 180.18L1440 202.13L229.40999999999994 0z" fill="rgba(255, 255, 255, .025)"></path><path d="M0 560L526.17 560L0 510.44z" fill="rgba(0, 0, 0, .1)"></path><path d="M0 510.44L526.17 560L926.1299999999999 560L0 347.91999999999996z" fill="rgba(0, 0, 0, .075)"></path><path d="M0 347.91999999999996L926.1299999999999 560L1118.35 560L0 294.28z" fill="rgba(0, 0, 0, .05)"></path><path d="M0 294.28L1118.35 560L1309.9699999999998 560L0 174.74999999999997z" fill="rgba(0, 0, 0, .025)"></path></g><defs><mask id="SvgjsMask1011"><rect width="1440" height="560" fill="#ffffff"></rect></mask></defs></svg>