<svg xmlns="http://www.w3.org/2000/svg" version="1.1" xmlns:xlink="http://www.w3.org/1999/xlink" xmlns:svgjs="http://svgjs.com/svgjs" width="1440" height="560" preserveAspectRatio="none" viewBox="0 0 1440 560"><g mask="url(&quot;#SvgjsMask1073&quot;)" fill="none"><rect width="1440" height="560" x="0" y="0" fill="rgba(22, 25, 37, 1)"></rect><path d="M0,538.533C99.409,536.627,156.042,424.893,231.315,359.934C295.124,304.867,364.127,258.28,408.081,186.364C456.289,107.488,500.795,21.106,494.78,-71.139C488.569,-166.39,433.245,-249.293,374.757,-324.728C313.608,-403.594,248.514,-492.976,151.058,-514.455C54.742,-535.683,-36.31,-472.156,-127.877,-435.509C-210.701,-402.361,-290.458,-368.369,-358.403,-310.558C-435.893,-244.626,-530.599,-179.055,-547.254,-78.683C-563.948,21.925,-501.634,118.736,-443.547,202.561C-392.167,276.706,-308.993,314.447,-237.086,368.914C-158.026,428.799,-99.162,540.434,0,538.533" fill="#11131c"></path><path d="M1440 992.375C1535.806 991.983 1637.032 1043.221 1721.5430000000001 998.0889999999999 1806.958 952.475 1833.808 846.258 1876.426 759.309 1920.266 669.866 1980.344 582.637 1973.8980000000001 483.23699999999997 1967.259 380.855 1909.414 288.987 1840.97 212.55700000000002 1773.267 136.954 1686.489 80.73500000000001 1588.807 53.21100000000001 1491.799 25.878000000000043 1389.084 28.875 1292.614 58.05000000000001 1196.657 87.06900000000002 1111.2649999999999 142.50599999999997 1044.9479999999999 217.685 978.2370000000001 293.31 932.665 385.196 916.26 484.697 899.634 585.534 908.517 690.373 951.7429999999999 782.979 994.767 875.153 1063.487 960.306 1156.973 1000.399 1245.506 1038.367 1343.67 992.769 1440 992.375" fill="#1c1f2e"></path></g><defs><mask id="SvgjsMask1073"><rect width="1440" height="560" fill="#ffffff"></rect></mask></defs></svg>